<?xml version="1.0" encoding="iso-8859-1"?>
<!-- Generator: Adobe Illustrator 18.0.0, SVG Export Plug-In . SVG Version: 6.00 Build 0)  -->
<!DOCTYPE svg PUBLIC "-//W3C//DTD SVG 1.1//EN" "http://www.w3.org/Graphics/SVG/1.1/DTD/svg11.dtd">
<svg version="1.1" id="Capa_1" xmlns="http://www.w3.org/2000/svg" xmlns:xlink="http://www.w3.org/1999/xlink" x="0px" y="0px"
	 viewBox="0 0 285 285" style="enable-background:new 0 0 285 285;" xml:space="preserve">
<g>
	<path style="fill:currentColor;" d="M217.256,157.998l-14.143-14.143c-1.406-1.407-3.314-2.197-5.303-2.197
		c-1.989,0-3.897,0.79-5.303,2.197L160,176.362V7.5c0-4.142-3.358-7.5-7.5-7.5h-20c-4.142,0-7.5,3.358-7.5,7.5v168.862
		l-32.507-32.507c-1.406-1.407-3.314-2.197-5.303-2.197c-1.989,0-3.897,0.79-5.303,2.197l-14.143,14.143
		c-1.407,1.406-2.197,3.314-2.197,5.303c0,1.989,0.79,3.897,2.197,5.303l69.453,69.452c1.464,1.464,3.384,2.197,5.303,2.197
		s3.839-0.732,5.303-2.197l69.453-69.452c1.407-1.406,2.197-3.314,2.197-5.303C219.453,161.311,218.663,159.404,217.256,157.998z"/>
	<path style="fill:currentColor;" d="M197.024,250H87.976c-4.142,0-7.5,3.358-7.5,7.5v20c0,4.142,3.358,7.5,7.5,7.5h109.048
		c4.142,0,7.5-3.358,7.5-7.5v-20C204.524,253.358,201.166,250,197.024,250z"/>
</g>
<g>
</g>
<g>
</g>
<g>
</g>
<g>
</g>
<g>
</g>
<g>
</g>
<g>
</g>
<g>
</g>
<g>
</g>
<g>
</g>
<g>
</g>
<g>
</g>
<g>
</g>
<g>
</g>
<g>
</g>
</svg>
