<svg xmlns="http://www.w3.org/2000/svg" xmlns:xlink="http://www.w3.org/1999/xlink"><symbol id="copy" viewBox="0 0 512 512">
<g>
	<path d="M320,128V0H96L0,96v288h192v128h320V128H320z M96,45.255V96H45.255L96,45.255z M32,352V128h96V32h160v96l-96,96v128H32z
		 M288,173.255V224h-50.745L288,173.255z M480,480H224V256h96v-96h160V480z"/>
</g>
<g>
</g>
<g>
</g>
<g>
</g>
<g>
</g>
<g>
</g>
<g>
</g>
<g>
</g>
<g>
</g>
<g>
</g>
<g>
</g>
<g>
</g>
<g>
</g>
<g>
</g>
<g>
</g>
<g>
</g>
</symbol><symbol id="cross" viewBox="0 0 612 612">
<g>
	<g id="cross">
		<g>
			<polygon points="612,36.004 576.521,0.603 306,270.608 35.478,0.603 0,36.004 270.522,306.011 0,575.997 35.478,611.397 
				306,341.411 576.521,611.397 612,575.997 341.459,306.011 			"/>
		</g>
	</g>
</g>
<g>
</g>
<g>
</g>
<g>
</g>
<g>
</g>
<g>
</g>
<g>
</g>
<g>
</g>
<g>
</g>
<g>
</g>
<g>
</g>
<g>
</g>
<g>
</g>
<g>
</g>
<g>
</g>
<g>
</g>
</symbol><symbol id="download-arrow-with-line" viewBox="0 0 285 285">
<g>
	<path style="fill:#231F20;" d="M217.256,157.998l-14.143-14.143c-1.406-1.407-3.314-2.197-5.303-2.197
		c-1.989,0-3.897,0.79-5.303,2.197L160,176.362V7.5c0-4.142-3.358-7.5-7.5-7.5h-20c-4.142,0-7.5,3.358-7.5,7.5v168.862
		l-32.507-32.507c-1.406-1.407-3.314-2.197-5.303-2.197c-1.989,0-3.897,0.79-5.303,2.197l-14.143,14.143
		c-1.407,1.406-2.197,3.314-2.197,5.303c0,1.989,0.79,3.897,2.197,5.303l69.453,69.452c1.464,1.464,3.384,2.197,5.303,2.197
		s3.839-0.732,5.303-2.197l69.453-69.452c1.407-1.406,2.197-3.314,2.197-5.303C219.453,161.311,218.663,159.404,217.256,157.998z"/>
	<path style="fill:#231F20;" d="M197.024,250H87.976c-4.142,0-7.5,3.358-7.5,7.5v20c0,4.142,3.358,7.5,7.5,7.5h109.048
		c4.142,0,7.5-3.358,7.5-7.5v-20C204.524,253.358,201.166,250,197.024,250z"/>
</g>
<g>
</g>
<g>
</g>
<g>
</g>
<g>
</g>
<g>
</g>
<g>
</g>
<g>
</g>
<g>
</g>
<g>
</g>
<g>
</g>
<g>
</g>
<g>
</g>
<g>
</g>
<g>
</g>
<g>
</g>
</symbol><symbol id="download" viewBox="0 0 296 296">
<g>
	<polygon points="231.855,125 172.5,125 172.5,0 124.5,0 124.5,125 65.812,125 147.471,239.018 	"/>
	<rect x="32.5" y="261" width="231" height="35"/>
</g>
<g>
</g>
<g>
</g>
<g>
</g>
<g>
</g>
<g>
</g>
<g>
</g>
<g>
</g>
<g>
</g>
<g>
</g>
<g>
</g>
<g>
</g>
<g>
</g>
<g>
</g>
<g>
</g>
<g>
</g>
</symbol><symbol id="email" viewBox="0 0 612 612">
<g>
	<g id="Mail">
		<g>
			<path d="M573.75,57.375H38.25C17.136,57.375,0,74.511,0,95.625v420.75c0,21.133,17.136,38.25,38.25,38.25h535.5
				c21.133,0,38.25-17.117,38.25-38.25V95.625C612,74.511,594.883,57.375,573.75,57.375z M554.625,497.25H57.375V204.657
				l224.03,187.999c7.134,5.967,15.874,8.97,24.595,8.97c8.74,0,17.461-3.003,24.595-8.97l224.03-187.999V497.25z M554.625,129.763
				L306,338.379L57.375,129.763V114.75h497.25V129.763z"/>
		</g>
	</g>
</g>
<g>
</g>
<g>
</g>
<g>
</g>
<g>
</g>
<g>
</g>
<g>
</g>
<g>
</g>
<g>
</g>
<g>
</g>
<g>
</g>
<g>
</g>
<g>
</g>
<g>
</g>
<g>
</g>
<g>
</g>
</symbol><symbol id="file" viewBox="0 0 88 110"><style type="text/css">
	.st0{fill:#1D1C1B;}
</style><title>Doc</title><desc>Created with Sketch.</desc><path class="st0" d="M51,24H29v42h30V32L51,24z M49,28l6,6h-6V28z M55,53v9H33v-9h0V28h12v10h10V53z"/></symbol><symbol id="location" viewBox="0 0 524.71 524.71">
<g>
	<g>
		<g>
			<path d="M475.493,213.138C475.493,95.425,380.067,0,262.355,0C144.641,0,49.217,95.425,49.217,213.138
				c0,68.629,32.443,129.672,82.822,168.655L264.536,524.71l130.641-144.885C444.122,340.771,475.493,280.622,475.493,213.138z
				 M262.864,150.972c34.333,0,62.166,27.832,62.166,62.166s-27.833,62.166-62.166,62.166c-34.334,0-62.166-27.832-62.166-62.166
				S228.53,150.972,262.864,150.972z"/>
		</g>
	</g>
	<g>
	</g>
	<g>
	</g>
	<g>
	</g>
	<g>
	</g>
	<g>
	</g>
	<g>
	</g>
	<g>
	</g>
	<g>
	</g>
	<g>
	</g>
	<g>
	</g>
	<g>
	</g>
	<g>
	</g>
	<g>
	</g>
	<g>
	</g>
	<g>
	</g>
</g>
<g>
</g>
<g>
</g>
<g>
</g>
<g>
</g>
<g>
</g>
<g>
</g>
<g>
</g>
<g>
</g>
<g>
</g>
<g>
</g>
<g>
</g>
<g>
</g>
<g>
</g>
<g>
</g>
<g>
</g>
</symbol><symbol id="menu-mobile" viewBox="0 0 53 53">
<g>
	<g>
		<path d="M2,13.5h49c1.104,0,2-0.896,2-2s-0.896-2-2-2H2c-1.104,0-2,0.896-2,2S0.896,13.5,2,13.5z"/>
		<path d="M2,28.5h49c1.104,0,2-0.896,2-2s-0.896-2-2-2H2c-1.104,0-2,0.896-2,2S0.896,28.5,2,28.5z"/>
		<path d="M2,43.5h49c1.104,0,2-0.896,2-2s-0.896-2-2-2H2c-1.104,0-2,0.896-2,2S0.896,43.5,2,43.5z"/>
	</g>
</g>
<g>
</g>
<g>
</g>
<g>
</g>
<g>
</g>
<g>
</g>
<g>
</g>
<g>
</g>
<g>
</g>
<g>
</g>
<g>
</g>
<g>
</g>
<g>
</g>
<g>
</g>
<g>
</g>
<g>
</g>
</symbol><symbol id="search" viewBox="0 0 124.524 124.524">
<g>
	<path d="M51,102.05c10.5,0,20.2-3.2,28.3-8.6l29.3,29.3c2.301,2.3,6.101,2.3,8.5,0l5.7-5.7c2.3-2.3,2.3-6.1,0-8.5L93.4,79.35
		c5.399-8.1,8.6-17.8,8.6-28.3c0-28.1-22.9-51-51-51c-28.1,0-51,22.9-51,51C0,79.149,22.8,102.05,51,102.05z M51,20.05
		c17.1,0,31,13.9,31,31c0,17.1-13.9,31-31,31c-17.1,0-31-13.9-31-31C20,33.95,33.9,20.05,51,20.05z"/>
</g>
<g>
</g>
<g>
</g>
<g>
</g>
<g>
</g>
<g>
</g>
<g>
</g>
<g>
</g>
<g>
</g>
<g>
</g>
<g>
</g>
<g>
</g>
<g>
</g>
<g>
</g>
<g>
</g>
<g>
</g>
</symbol></svg>