<svg xmlns="http://www.w3.org/2000/svg" xmlns:xlink="http://www.w3.org/1999/xlink"><symbol id="copy" viewBox="0 0 512 512">
<g>
	<path d="M320,128V0H96L0,96v288h192v128h320V128H320z M96,45.255V96H45.255L96,45.255z M32,352V128h96V32h160v96l-96,96v128H32z
		 M288,173.255V224h-50.745L288,173.255z M480,480H224V256h96v-96h160V480z"/>
</g>
<g>
</g>
<g>
</g>
<g>
</g>
<g>
</g>
<g>
</g>
<g>
</g>
<g>
</g>
<g>
</g>
<g>
</g>
<g>
</g>
<g>
</g>
<g>
</g>
<g>
</g>
<g>
</g>
<g>
</g>
</symbol><symbol id="cross" viewBox="0 0 612 612">
<g>
	<g id="cross">
		<g>
			<polygon points="612,36.004 576.521,0.603 306,270.608 35.478,0.603 0,36.004 270.522,306.011 0,575.997 35.478,611.397 
				306,341.411 576.521,611.397 612,575.997 341.459,306.011 			"/>
		</g>
	</g>
</g>
<g>
</g>
<g>
</g>
<g>
</g>
<g>
</g>
<g>
</g>
<g>
</g>
<g>
</g>
<g>
</g>
<g>
</g>
<g>
</g>
<g>
</g>
<g>
</g>
<g>
</g>
<g>
</g>
<g>
</g>
</symbol><symbol id="download" viewBox="0 0 296 296">
<g>
	<polygon points="231.855,125 172.5,125 172.5,0 124.5,0 124.5,125 65.812,125 147.471,239.018 	"/>
	<rect x="32.5" y="261" width="231" height="35"/>
</g>
<g>
</g>
<g>
</g>
<g>
</g>
<g>
</g>
<g>
</g>
<g>
</g>
<g>
</g>
<g>
</g>
<g>
</g>
<g>
</g>
<g>
</g>
<g>
</g>
<g>
</g>
<g>
</g>
<g>
</g>
</symbol><symbol id="location" viewBox="0 0 524.71 524.71">
<g>
	<g>
		<g>
			<path d="M475.493,213.138C475.493,95.425,380.067,0,262.355,0C144.641,0,49.217,95.425,49.217,213.138
				c0,68.629,32.443,129.672,82.822,168.655L264.536,524.71l130.641-144.885C444.122,340.771,475.493,280.622,475.493,213.138z
				 M262.864,150.972c34.333,0,62.166,27.832,62.166,62.166s-27.833,62.166-62.166,62.166c-34.334,0-62.166-27.832-62.166-62.166
				S228.53,150.972,262.864,150.972z"/>
		</g>
	</g>
	<g>
	</g>
	<g>
	</g>
	<g>
	</g>
	<g>
	</g>
	<g>
	</g>
	<g>
	</g>
	<g>
	</g>
	<g>
	</g>
	<g>
	</g>
	<g>
	</g>
	<g>
	</g>
	<g>
	</g>
	<g>
	</g>
	<g>
	</g>
	<g>
	</g>
</g>
<g>
</g>
<g>
</g>
<g>
</g>
<g>
</g>
<g>
</g>
<g>
</g>
<g>
</g>
<g>
</g>
<g>
</g>
<g>
</g>
<g>
</g>
<g>
</g>
<g>
</g>
<g>
</g>
<g>
</g>
</symbol><symbol id="search" viewBox="0 0 124.524 124.524">
<g>
	<path d="M51,102.05c10.5,0,20.2-3.2,28.3-8.6l29.3,29.3c2.301,2.3,6.101,2.3,8.5,0l5.7-5.7c2.3-2.3,2.3-6.1,0-8.5L93.4,79.35
		c5.399-8.1,8.6-17.8,8.6-28.3c0-28.1-22.9-51-51-51c-28.1,0-51,22.9-51,51C0,79.149,22.8,102.05,51,102.05z M51,20.05
		c17.1,0,31,13.9,31,31c0,17.1-13.9,31-31,31c-17.1,0-31-13.9-31-31C20,33.95,33.9,20.05,51,20.05z"/>
</g>
<g>
</g>
<g>
</g>
<g>
</g>
<g>
</g>
<g>
</g>
<g>
</g>
<g>
</g>
<g>
</g>
<g>
</g>
<g>
</g>
<g>
</g>
<g>
</g>
<g>
</g>
<g>
</g>
<g>
</g>
</symbol></svg>